<?xml version="1.0" standalone="no"?>
<!DOCTYPE svg PUBLIC "-//W3C//DTD SVG 20010904//EN"
 "http://www.w3.org/TR/2001/REC-SVG-20010904/DTD/svg10.dtd">
<svg version="1.0" xmlns="http://www.w3.org/2000/svg"
 width="300.000000pt" height="300.000000pt" viewBox="0 0 300.000000 300.000000"
 preserveAspectRatio="xMidYMid meet">
<metadata>
Created by potrace 1.11, written by Peter Selinger 2001-2013
</metadata>
<g transform="translate(0.000000,300.000000) scale(0.100000,-0.100000)"
fill="#000000" stroke="none">
<path d="M290 1525 l0 -685 210 0 210 0 0 241 0 241 143 -4 c120 -2 147 -6
177 -23 54 -31 79 -92 95 -236 14 -121 21 -165 31 -201 5 -16 24 -18 215 -18
115 0 209 1 209 3 0 1 -6 23 -14 48 -8 25 -17 85 -20 135 -18 244 -61 356
-161 422 l-43 28 35 19 c51 28 109 98 135 164 18 45 22 77 22 161 1 94 -2 111
-26 162 -32 69 -99 138 -167 172 -102 52 -140 56 -613 56 l-438 0 0 -685z
m774 330 c56 -38 72 -119 33 -176 -37 -56 -64 -63 -234 -67 l-153 -4 0 137 0
137 163 -4 c141 -3 166 -6 191 -23z"/>
<path d="M1610 2035 l0 -175 195 0 195 0 0 -510 0 -510 210 0 210 0 0 510 0
510 195 0 195 0 0 175 0 175 -600 0 -600 0 0 -175z"/>
</g>
</svg>
